<svg width="85" height="65" viewBox="0 0 85 65" fill="none" xmlns="http://www.w3.org/2000/svg">
<mask id="path-1-outside-1_804_649" maskUnits="userSpaceOnUse" x="-0.169891" y="0.439453" width="85" height="65" fill="black">
<rect fill="white" x="-0.169891" y="0.439453" width="85" height="65"/>
<path d="M26.186 17.3193C26.0478 17.5848 25.9846 17.8829 26.0032 18.1817C26.0217 18.4804 26.1212 18.7684 26.291 19.0149L41.064 40.3536C41.215 40.5717 41.4167 40.7499 41.6517 40.8729C41.8867 40.996 42.148 41.0603 42.4132 41.0603C42.6785 41.0603 42.9398 40.996 43.1748 40.8729C43.4098 40.7499 43.6114 40.5717 43.7625 40.3536L58.5355 19.0149C58.7071 18.7689 58.8079 18.4805 58.8268 18.1812C58.8458 17.8819 58.7822 17.5831 58.643 17.3174C58.5038 17.0517 58.2944 16.8293 58.0375 16.6745C57.7806 16.5197 57.4861 16.4384 57.1862 16.4395L27.6403 16.4395C27.3407 16.4394 27.0467 16.5214 26.7904 16.6765C26.534 16.8316 26.325 17.0539 26.186 17.3193ZM54.0527 19.7223L42.4132 36.5356L30.7738 19.7223H54.0527Z"/>
</mask>
<path d="M26.186 17.3193L12.0126 9.89528L12.0019 9.91564L11.9913 9.93604L26.186 17.3193ZM26.291 19.0149L13.1163 28.0938L13.1261 28.108L13.1359 28.1222L26.291 19.0149ZM41.064 40.3536L27.9089 49.461L27.912 49.4654L41.064 40.3536ZM43.7625 40.3536L56.9145 49.4654L56.9176 49.461L43.7625 40.3536ZM58.5355 19.0149L45.4131 9.86048L45.3967 9.88397L45.3804 9.90753L58.5355 19.0149ZM57.1862 16.4395V32.4395H57.2142L57.2422 32.4394L57.1862 16.4395ZM27.6403 16.4395L27.6376 32.4395H27.6403V16.4395ZM54.0527 19.7223L67.208 28.8294L84.589 3.72235L54.0527 3.72235V19.7223ZM42.4132 36.5356L29.258 45.6427L42.4132 64.6456L55.5685 45.6427L42.4132 36.5356ZM30.7738 19.7223V3.72235L0.23745 3.72235L17.6185 28.8294L30.7738 19.7223ZM11.9913 9.93604C10.5123 12.7795 9.83558 15.972 10.0338 19.1711L41.9725 17.1923C42.1337 19.7938 41.5834 22.3901 40.3806 24.7025L11.9913 9.93604ZM10.0338 19.1711C10.232 22.37 11.2976 25.4546 13.1163 28.0938L39.4657 9.93597C40.9448 12.0823 41.8114 14.5908 41.9725 17.1923L10.0338 19.1711ZM13.1359 28.1222L27.9089 49.461L54.2191 31.2463L39.4461 9.90752L13.1359 28.1222ZM27.912 49.4654C29.5356 51.8089 31.7029 53.724 34.2284 55.0466L49.075 26.6992C51.1305 27.7757 52.8945 29.3344 54.216 31.2418L27.912 49.4654ZM34.2284 55.0466C36.7539 56.3694 39.5624 57.0603 42.4132 57.0603V25.0603C44.7336 25.0603 47.0194 25.6226 49.075 26.6992L34.2284 55.0466ZM42.4132 57.0603C45.2641 57.0603 48.0726 56.3694 50.5981 55.0466L35.7515 26.6992C37.8071 25.6226 40.0929 25.0603 42.4132 25.0603V57.0603ZM50.5981 55.0466C53.1236 53.724 55.2909 51.8089 56.9145 49.4654L30.6105 31.2418C31.932 29.3344 33.696 27.7758 35.7515 26.6992L50.5981 55.0466ZM56.9176 49.461L71.6906 28.1222L45.3804 9.90753L30.6074 31.2463L56.9176 49.461ZM71.6579 28.1693C73.5055 25.5207 74.5906 22.4158 74.7948 19.1928L42.8588 17.1695C43.0251 14.5453 43.9086 12.0171 45.4131 9.86048L71.6579 28.1693ZM74.7948 19.1928C74.999 15.9699 74.3145 12.7528 72.8158 9.89227L44.4703 24.7425C43.25 22.4133 42.6926 19.7938 42.8588 17.1695L74.7948 19.1928ZM72.8158 9.89227C71.3171 7.03169 69.0619 4.63747 66.296 2.97062L49.779 30.3785C47.5269 29.0212 45.6905 27.0717 44.4703 24.7425L72.8158 9.89227ZM66.296 2.97062C63.5301 1.30377 60.3596 0.428263 57.1302 0.439561L57.2422 32.4394C54.6127 32.4486 52.0311 31.7357 49.779 30.3785L66.296 2.97062ZM57.1862 0.439464L27.6403 0.439464V32.4395H57.1862V0.439464ZM27.6429 0.439464C24.4227 0.438932 21.2638 1.31983 18.5085 2.98666L35.0722 30.3663C32.8297 31.7229 30.2586 32.4399 27.6376 32.4395L27.6429 0.439464ZM18.5085 2.98666C15.7532 4.65351 13.5068 7.04271 12.0126 9.89528L40.3593 24.7433C39.1432 27.065 37.3148 29.0096 35.0722 30.3663L18.5085 2.98666ZM40.8974 10.6153L29.258 27.4285L55.5685 45.6427L67.208 28.8294L40.8974 10.6153ZM55.5685 27.4285L43.929 10.6153L17.6185 28.8294L29.258 45.6427L55.5685 27.4285ZM30.7738 35.7223H54.0527V3.72235L30.7738 3.72235V35.7223Z" fill="#FF6464" mask="url(#path-1-outside-1_804_649)"/>
</svg>
